<svg width="212" height="74" viewBox="0 0 212 74" fill="none" xmlns="http://www.w3.org/2000/svg">
<g clip-path="url(#clip0)">
<path d="M47.8739 71.1179C47.8171 71.1179 47.5628 71.1179 47.1171 71.1179L46.5337 71.1419V70.9922C46.8718 70.9922 47.1051 70.9025 47.2278 70.7199C47.3265 70.5703 47.3773 70.3189 47.3773 69.9628V66.9431C47.3773 66.5691 47.2607 66.2698 47.0243 66.0423C46.788 65.8149 46.4859 65.7012 46.1149 65.7012C45.4807 65.7012 44.9033 65.9705 44.3828 66.5092V69.9628C44.3828 70.2441 44.4187 70.4715 44.4935 70.6451C44.5922 70.8845 44.7837 71.0042 45.0649 71.0042H45.2503V71.1419L43.9101 71.1179C43.8443 71.1179 43.59 71.1179 43.1533 71.1179L42.5699 71.1419L42.5579 70.9922C42.878 70.9922 43.0934 70.9324 43.2071 70.8127C43.3178 70.693 43.3836 70.4745 43.4016 70.1603V69.9628V66.8803C43.4016 66.3835 43.2639 66.1351 42.9857 66.1351C42.8631 66.1351 42.7045 66.1591 42.5071 66.2099V66.0603C43.2699 65.7551 43.8952 65.4737 44.3828 65.2164V66.3715C44.9961 65.6353 45.723 65.2672 46.5696 65.2672C47.1081 65.2672 47.5389 65.4169 47.868 65.7132C48.194 66.0094 48.3586 66.4224 48.3586 66.9521V69.9538C48.3586 70.292 48.3885 70.5224 48.4453 70.6481C48.5441 70.8546 48.7385 70.9683 49.0287 70.9833L49.2142 70.9952V71.1449C49.0975 71.1449 48.8462 71.1359 48.4573 71.1209H47.8739V71.1179Z" fill="black"/>
<path d="M56.2802 67.8889C56.0079 67.9548 55.7327 68.0416 55.4605 68.1493C54.8891 68.3797 54.5181 68.5623 54.3416 68.697C53.9677 68.9693 53.7822 69.3314 53.7822 69.7773C53.7822 70.5554 54.1262 70.9445 54.8143 70.9445C55.278 70.9445 55.7656 70.6781 56.2802 70.1484V67.8889ZM56.5554 71.3664C56.4477 71.2078 56.3609 70.9864 56.2951 70.6961C56.2772 70.6302 56.2532 70.5135 56.2203 70.3489C55.5831 70.9864 54.916 71.3066 54.222 71.3066C53.5519 71.3066 53.1001 71.0133 52.8698 70.4237C52.786 70.2172 52.7441 70.0167 52.7441 69.8252C52.7441 69.4182 52.9894 69.0681 53.4771 68.7658C53.7433 68.6072 54.1801 68.4306 54.7934 68.2301L56.2832 67.7573V66.7727C56.2832 66.3926 56.2054 66.0814 56.0468 65.839C55.8643 65.5576 55.5921 65.417 55.2271 65.417C54.9609 65.417 54.7126 65.4918 54.4822 65.6414C54.216 65.806 54.0844 66.0215 54.0844 66.2789C54.0844 66.4375 54.1203 66.638 54.1951 66.8804L53.3006 67.1677C53.2766 67.1019 53.2557 66.9971 53.2378 66.8565C53.2378 66.4016 53.5519 66.0065 54.1801 65.6774C54.7275 65.3871 55.26 65.2434 55.7836 65.2434C56.2144 65.2434 56.5584 65.3721 56.8216 65.6295C57.0819 65.8868 57.2135 66.231 57.2135 66.6619V69.903C57.2135 70.3669 57.3841 70.5973 57.7221 70.5973C57.8208 70.5973 57.9614 70.5554 58.1439 70.4746L58.1798 70.5734L56.5554 71.3664Z" fill="black"/>
<path d="M64.5907 71.0821L64.4292 71.2946L64.2048 71.3066C63.9655 71.3245 63.7112 71.2737 63.4479 71.1569C62.6611 70.8278 62.2693 70.2532 62.2693 69.4391V65.6534H61.0906V65.4559H61.65C61.9492 65.4469 62.2513 65.2554 62.5564 64.8813C62.8287 64.5312 62.9902 64.193 63.0411 63.8698L63.1039 63.4568H63.2415V65.4559H65.1531L65.0903 65.6534H63.2385V69.493C63.2385 69.6666 63.2505 69.7953 63.2744 69.8791C63.3163 70.1454 63.439 70.3669 63.6394 70.5434C63.8428 70.723 64.0762 70.8098 64.3424 70.8098C64.5249 70.8098 64.6894 70.7679 64.839 70.6841C64.8959 70.6512 65.0424 70.5524 65.2728 70.3848C64.9766 70.6422 64.7493 70.8726 64.5907 71.0821Z" fill="black"/>
<path d="M73.422 71.3544C73.2305 71.1479 73.1378 70.8247 73.1378 70.3847L72.8775 70.5703C72.6382 70.7439 72.336 70.9354 71.9711 71.1419C71.6899 71.2586 71.3578 71.3155 70.9779 71.3155C70.4304 71.3155 69.9936 71.1568 69.6676 70.8366C69.3415 70.5164 69.177 70.0855 69.177 69.5378V66.8803C69.177 66.3835 69.0334 66.1351 68.7432 66.1351C68.6265 66.1351 68.4709 66.1591 68.2705 66.2099V66.0603C68.8658 65.8359 69.4911 65.5545 70.1462 65.2164V69.5528C70.1462 69.9927 70.2569 70.3428 70.4813 70.6092C70.7056 70.8755 71.0317 71.0072 71.4625 71.0072C72.1177 71.0072 72.6681 70.7259 73.1138 70.1633V66.7456C73.1138 66.3386 72.9702 66.1381 72.6801 66.1381C72.5634 66.1381 72.4078 66.1621 72.2074 66.2129V66.0603L73.1527 65.6832C73.419 65.5725 73.7271 65.4169 74.0831 65.2164V69.5887C74.0831 70.262 74.2536 70.5972 74.5917 70.5972C74.7083 70.5972 74.8489 70.5553 75.0135 70.4745L75.0374 70.5613L73.422 71.3544Z" fill="black"/>
<path d="M81.8103 65.8867C81.4992 65.8867 81.197 66.0124 80.9039 66.2668C80.6107 66.5182 80.4641 66.8025 80.4641 67.1167V70.1154C80.4641 70.693 80.7483 70.9833 81.3197 70.9833V71.1449C81.212 71.1449 80.9607 71.1359 80.5628 71.1209H79.9675C79.9107 71.1209 79.6564 71.1209 79.2106 71.1209L78.6273 71.1449V70.9833C79.1987 70.9833 79.4829 70.6361 79.4829 69.9388V66.8833C79.4829 66.3865 79.3452 66.1381 79.067 66.1381C78.9444 66.1381 78.7858 66.1621 78.5884 66.2129L78.5645 66.0513C79.2555 65.8029 79.8897 65.5246 80.4641 65.2194V66.8594L80.6735 66.3985C81.1282 65.6443 81.6458 65.2672 82.2291 65.2672C82.4206 65.2672 82.5941 65.2972 82.7616 65.354V66.5212C82.5821 66.0992 82.262 65.8867 81.8103 65.8867Z" fill="black"/>
<path d="M90.2525 67.7153C90.2525 67.1287 90.1418 66.623 89.9174 66.201C89.6362 65.6803 89.2264 65.4169 88.6879 65.4169C88.2422 65.4169 87.8473 65.6653 87.5092 66.1621C87.2041 66.593 87.0336 67.0479 87.0007 67.5297L86.9767 67.8769H90.2555V67.7153H90.2525ZM91.2816 68.0864H86.9737V68.2599L86.9857 68.3976C87.0515 69.1667 87.2759 69.8012 87.6558 70.298C88.0956 70.8785 88.6789 71.1688 89.4059 71.1688C89.8786 71.1688 90.417 70.9923 91.0213 70.6361L91.0722 70.7469C90.4858 71.1269 89.8277 71.3185 89.0978 71.3185C88.1614 71.3185 87.4015 71.0312 86.8122 70.4536C86.2259 69.879 85.9297 69.1218 85.9297 68.1851C85.9297 67.5058 86.1032 66.9132 86.4502 66.4075C86.8242 65.8598 87.3268 65.5187 87.964 65.375C88.2631 65.3092 88.5563 65.2762 88.8465 65.2762C89.6332 65.2762 90.2405 65.5336 90.6713 66.0454C91.0782 66.5272 91.2786 67.1676 91.2786 67.9697V68.0864H91.2816Z" fill="black"/>
<path d="M101.776 71.0821L101.614 71.2946L101.39 71.3066C101.151 71.3245 100.896 71.2737 100.633 71.1569C99.8465 70.8278 99.4546 70.2532 99.4546 69.4391V65.6534H98.2759V65.4559H98.8353C99.1345 65.4469 99.4366 65.2554 99.7417 64.8813C100.014 64.5312 100.176 64.193 100.226 63.8698L100.289 63.4568H100.427V65.4559H102.338L102.276 65.6534H100.424V69.493C100.424 69.6666 100.436 69.7953 100.46 69.8791C100.502 70.1454 100.624 70.3669 100.825 70.5434C101.028 70.723 101.261 70.8098 101.528 70.8098C101.71 70.8098 101.875 70.7679 102.024 70.6841C102.081 70.6512 102.228 70.5524 102.458 70.3848C102.162 70.6422 101.935 70.8726 101.776 71.0821Z" fill="black"/>
<path d="M108.31 65.4289C107.714 65.4289 107.233 65.6773 106.868 66.171C106.536 66.617 106.371 67.1497 106.371 67.7721C106.371 68.5742 106.554 69.3014 106.919 69.9538C107.364 70.7469 107.963 71.1449 108.707 71.1449C109.363 71.1449 109.85 70.8516 110.173 70.265C110.431 69.8012 110.559 69.2146 110.559 68.5053C110.559 67.431 110.236 66.587 109.59 65.9765C109.21 65.6114 108.782 65.4289 108.31 65.4289ZM108.486 71.3155C107.601 71.3155 106.868 71.0312 106.287 70.4655C105.707 69.8969 105.417 69.1727 105.417 68.2839C105.417 67.3651 105.707 66.6349 106.287 66.0962C106.868 65.5575 107.622 65.2882 108.549 65.2882C109.419 65.2882 110.14 65.5546 110.715 66.0843C111.289 66.614 111.579 67.3143 111.579 68.1851C111.579 69.0889 111.289 69.8341 110.709 70.4266C110.128 71.0192 109.387 71.3155 108.486 71.3155Z" fill="black"/>
<path d="M122.253 65.5785C121.709 65.5785 121.185 65.8388 120.683 66.3626V70.7349C121.015 71.0012 121.43 71.1329 121.936 71.1329C122.681 71.1329 123.255 70.7947 123.662 70.1154C124.009 69.5438 124.183 68.8644 124.183 68.0774C124.183 67.398 124.033 66.8324 123.737 66.3745C123.39 65.8418 122.896 65.5785 122.253 65.5785ZM122.142 71.2795C121.682 71.2795 121.191 71.1598 120.683 70.9204V72.8417C120.683 73.2068 120.733 73.4612 120.832 73.6019C120.949 73.7934 121.179 73.8891 121.526 73.8891V73.9999L120.186 73.949C120.12 73.949 119.866 73.958 119.429 73.9729L118.846 73.9969V73.8742C119.178 73.8742 119.405 73.7874 119.528 73.6138C119.618 73.4821 119.671 73.2367 119.689 72.8806V72.6083V66.8803C119.689 66.3835 119.555 66.1351 119.283 66.1351C119.214 66.1351 119.058 66.1561 118.819 66.198V66.0603C119.411 65.8359 120.03 65.5545 120.683 65.2164V66.2219C121.194 65.5845 121.834 65.2643 122.609 65.2643C123.417 65.2643 124.045 65.5276 124.5 66.0543C124.955 66.581 125.179 67.2544 125.179 68.0744C125.179 68.9782 124.898 69.7323 124.335 70.3368C123.764 70.9653 123.034 71.2795 122.142 71.2795Z" fill="black"/>
<path d="M133.238 67.7153C133.238 67.1287 133.127 66.623 132.903 66.201C132.622 65.6803 132.212 65.4169 131.673 65.4169C131.228 65.4169 130.833 65.6653 130.495 66.1621C130.19 66.593 130.019 67.0479 129.986 67.5297L129.962 67.8769H133.241V67.7153H133.238ZM134.267 68.0864H129.959V68.2599L129.971 68.3976C130.037 69.1667 130.261 69.8012 130.641 70.298C131.081 70.8785 131.665 71.1688 132.391 71.1688C132.864 71.1688 133.403 70.9923 134.007 70.6361L134.058 70.7469C133.471 71.1269 132.813 71.3185 132.083 71.3185C131.147 71.3185 130.387 71.0312 129.798 70.4536C129.211 69.879 128.915 69.1218 128.915 68.1851C128.915 67.5058 129.089 66.9132 129.436 66.4075C129.81 65.8598 130.312 65.5187 130.95 65.375C131.249 65.3092 131.542 65.2762 131.832 65.2762C132.619 65.2762 133.226 65.5336 133.657 66.0454C134.064 66.5272 134.264 67.1676 134.264 67.9697V68.0864H134.267Z" fill="black"/>
<path d="M140.864 65.4289C140.268 65.4289 139.787 65.6773 139.422 66.171C139.09 66.617 138.925 67.1497 138.925 67.7721C138.925 68.5742 139.108 69.3014 139.473 69.9538C139.918 70.7469 140.517 71.1449 141.261 71.1449C141.917 71.1449 142.404 70.8516 142.727 70.265C142.985 69.8012 143.113 69.2146 143.113 68.5053C143.113 67.431 142.79 66.587 142.144 65.9765C141.761 65.6114 141.336 65.4289 140.864 65.4289ZM141.037 71.3155C140.152 71.3155 139.419 71.0312 138.838 70.4655C138.258 69.8969 137.968 69.1727 137.968 68.2839C137.968 67.3651 138.258 66.6349 138.838 66.0962C139.419 65.5575 140.173 65.2882 141.1 65.2882C141.97 65.2882 142.691 65.5546 143.266 66.0843C143.84 66.614 144.13 67.3143 144.13 68.1851C144.13 69.0889 143.84 69.8341 143.26 70.4266C142.682 71.0192 141.941 71.3155 141.037 71.3155Z" fill="black"/>
<path d="M151.206 65.5785C150.661 65.5785 150.138 65.8388 149.635 66.3626V70.7349C149.967 71.0012 150.383 71.1329 150.888 71.1329C151.633 71.1329 152.208 70.7947 152.615 70.1154C152.962 69.5438 153.135 68.8644 153.135 68.0774C153.135 67.398 152.986 66.8324 152.689 66.3745C152.342 65.8418 151.849 65.5785 151.206 65.5785ZM151.095 71.2795C150.634 71.2795 150.144 71.1598 149.635 70.9204V72.8417C149.635 73.2068 149.686 73.4612 149.785 73.6019C149.901 73.7934 150.132 73.8891 150.479 73.8891V73.9999L149.138 73.949C149.073 73.949 148.818 73.958 148.382 73.9729L147.798 73.9969V73.8742C148.13 73.8742 148.358 73.7874 148.48 73.6138C148.57 73.4821 148.624 73.2367 148.642 72.8806V72.6083V66.8803C148.642 66.3835 148.507 66.1351 148.235 66.1351C148.166 66.1351 148.011 66.1561 147.771 66.198V66.0603C148.364 65.8359 148.983 65.5545 149.635 65.2164V66.2219C150.147 65.5845 150.787 65.2643 151.562 65.2643C152.369 65.2643 152.998 65.5276 153.452 66.0543C153.907 66.581 154.131 67.2544 154.131 68.0744C154.131 68.9782 153.85 69.7323 153.288 70.3368C152.716 70.9653 151.986 71.2795 151.095 71.2795Z" fill="black"/>
<path d="M158.651 69.7294V62.8073C158.651 62.3195 158.499 62.0741 158.191 62.0741C158.119 62.0741 157.981 62.095 157.778 62.1369L157.73 61.9873C158.346 61.7628 158.983 61.4905 159.642 61.1673V70.0735C159.642 70.687 159.923 70.9923 160.485 70.9923V71.1299L158.983 71.094C158.636 71.085 158.239 71.097 157.793 71.1299L157.805 70.9803C158.334 70.9803 158.615 70.711 158.648 70.1753V69.7294H158.651Z" fill="black"/>
<path d="M168.461 67.7153C168.461 67.1287 168.35 66.623 168.126 66.201C167.845 65.6803 167.435 65.4169 166.896 65.4169C166.451 65.4169 166.056 65.6653 165.718 66.1621C165.413 66.593 165.242 67.0479 165.209 67.5297L165.185 67.8769H168.464V67.7153H168.461ZM169.493 68.0864H165.185V68.2599L165.197 68.3976C165.263 69.1667 165.487 69.8012 165.867 70.298C166.307 70.8785 166.89 71.1688 167.617 71.1688C168.09 71.1688 168.628 70.9923 169.233 70.6361L169.284 70.7469C168.697 71.1269 168.039 71.3185 167.309 71.3185C166.373 71.3185 165.613 71.0312 165.024 70.4536C164.437 69.879 164.141 69.1218 164.141 68.1851C164.141 67.5058 164.315 66.9132 164.662 66.4075C165.036 65.8598 165.538 65.5187 166.175 65.375C166.475 65.3092 166.768 65.2762 167.058 65.2762C167.845 65.2762 168.452 65.5336 168.883 66.0454C169.29 66.5272 169.49 67.1676 169.49 67.9697V68.0864H169.493Z" fill="black"/>
<path fill-rule="evenodd" clip-rule="evenodd" d="M91.3772 2.3851C84.5206 7.20631 82.235 16.5345 73.356 12.4764C82.8812 11.833 83.309 5.7758 89.5434 2.5467C84.359 0.418906 76.1202 1.8524 73.8317 8.62484C75.7702 6.98485 78.8246 3.67793 86.7971 3.39064C79.3123 5.05756 74.8339 8.95104 72.1624 12.1921C70.5529 1.34963 80.8439 -3.1753 91.3772 2.3851Z" fill="#75B051"/>
<path d="M11.8974 6.81429C10.9701 6.81429 9.80634 6.94297 8.42723 7.20334V22.7084C9.94395 23.2261 11.4308 23.4835 12.8847 23.4835C17.7609 23.4835 20.199 20.9966 20.199 16.0228C20.199 13.2456 19.5199 11.0489 18.1737 9.43288C16.7258 7.68815 14.6347 6.81429 11.8974 6.81429ZM28.2852 41.7C24.1838 41.7 20.5999 38.7432 17.5335 32.8326L14.6287 27.2633C14.1531 26.3266 13.7073 25.6981 13.2975 25.3749C12.8458 24.8901 12.1846 24.5669 11.2872 24.4053L8.43022 23.9204V35.3076C8.43022 37.3426 8.6157 38.6684 8.99563 39.2819C9.5371 40.1527 10.6829 40.5897 12.4509 40.5897V41.0266L6.25236 40.88C5.86346 40.88 4.66983 40.9039 2.66847 40.9518L0 41.0236V40.4909C1.77699 40.4909 2.93771 40.039 3.48816 39.1352C3.90698 38.4559 4.11639 37.1571 4.11639 35.2507V11.6205C4.11639 10.1032 3.9698 9.01091 3.67962 8.36749C3.2279 7.33501 2.30649 6.81728 0.918409 6.81728H0V6.18882H5.9562C6.69811 6.18882 7.81396 6.14991 9.29777 6.06911C10.7846 5.98831 11.8974 5.9494 12.6393 5.9494C20.5819 5.9494 24.5547 8.92113 24.5547 14.8556C24.5547 17.0852 23.9564 18.9586 22.7628 20.4759C21.5692 21.9872 19.8879 22.9867 17.725 23.4715L16.66 23.714C17.8626 25.1026 19.0562 26.8323 20.2289 28.8973L23.4568 34.6702C25.8052 38.8449 28.1805 40.9278 30.5618 40.9278C30.7892 40.9278 30.9657 40.9278 31.0943 40.9278V41.3797C30.2237 41.5952 29.2874 41.7 28.2852 41.7Z" fill="black"/>
<path d="M35.5516 40.9248C35.2944 40.9248 34.3072 40.9248 32.596 40.9248L30.3194 41.0206V40.3922C31.4831 40.3922 32.3208 40.1497 32.8383 39.6649C33.2272 39.3088 33.4665 38.4529 33.5652 37.0972L33.6131 36.37V24.5489C33.6131 22.6096 33.0657 21.643 31.9678 21.643C31.6776 21.643 31.0464 21.7238 30.0801 21.8854L30.1279 21.3048C33.0327 20.1736 35.4559 19.0932 37.3944 18.0578V34.9036C37.3944 36.7201 37.4752 37.8992 37.6368 38.4499C37.9928 39.6859 38.8154 40.3473 40.1078 40.446L40.8347 40.4939L40.7869 41.0266L35.5516 40.9248ZM35.5516 13.5508C34.7439 13.5508 34.0828 13.2605 33.5652 12.6799C33.0477 12.0993 32.7904 11.405 32.7904 10.597C32.7904 9.85484 33.0657 9.19046 33.6131 8.60988C34.1636 8.0293 34.8067 7.73901 35.5516 7.73901C36.3265 7.73901 36.9816 8.02033 37.5141 8.58594C38.0466 9.15156 38.3129 9.82192 38.3129 10.597C38.3129 11.405 38.0556 12.0993 37.538 12.6799C37.0205 13.2575 36.3594 13.5508 35.5516 13.5508Z" fill="black"/>
<path d="M43.4465 41.0715L58.6078 19.4135H51.778C49.7767 19.4135 48.3886 19.623 47.6138 20.0419C46.483 20.6554 45.756 21.8824 45.4329 23.7229C45.3671 24.112 45.3522 24.4172 45.3851 24.6447H44.9962V18.7341H63.2806L48.1194 40.3922H55.0867C60.4715 40.3922 63.1579 38.6474 63.1579 35.158H63.496V41.0685H43.4465V41.0715Z" fill="black"/>
<path d="M135.302 40.8769C134.56 40.844 133.534 40.862 132.218 40.9248C130.764 41.0206 129.756 41.0715 129.176 41.0715V40.5388C130.887 40.5388 132.018 40.1198 132.565 39.2789C132.984 38.6324 133.196 37.3725 133.196 35.4991V24.1119H112.854V36.4987C112.854 37.992 113.153 39.0424 113.751 39.6559C114.349 40.2784 115.391 40.5837 116.874 40.5837V41.0685L110.311 40.874L104.522 41.0685V40.5837C106.329 40.5837 107.508 40.1467 108.058 39.2759C108.477 38.5965 108.689 37.2648 108.689 35.2956V12.0066C108.689 10.0374 108.48 8.72059 108.058 8.07417C107.511 7.2033 106.332 6.76637 104.522 6.76637V6.18579L110.673 6.38032C111.062 6.38032 112.237 6.3474 114.233 6.28455L116.871 6.18878V6.76936C115.151 6.76936 114.014 7.18834 113.473 8.02928C113.06 8.6757 112.851 9.95058 112.851 11.8569V23.1932H133.193V12.0006C133.193 9.99847 133.008 8.69066 132.628 8.07716C132.086 7.20629 130.941 6.76936 129.173 6.76936V6.18878C129.81 6.18878 130.998 6.2217 132.733 6.28455L135.323 6.38032C135.614 6.38032 136.801 6.3474 138.883 6.28455L141.522 6.18878V6.76936C139.987 6.76936 138.907 7.06863 138.285 7.66717C137.663 8.2657 137.358 9.32212 137.358 10.8394V35.2597C137.358 37.2947 137.552 38.6205 137.938 39.234C138.485 40.1048 139.664 40.5418 141.474 40.5418L141.522 41.0745C140.971 41.0745 139.802 41.0415 138.001 40.9787L135.302 40.8769Z" fill="black"/>
<path d="M162.014 27.6973C162.014 25.4049 161.577 23.4327 160.707 21.7867C159.609 19.7517 158.011 18.7342 155.911 18.7342C154.167 18.7342 152.633 19.7038 151.31 21.6401C150.117 23.319 149.453 25.0966 149.324 26.97L149.228 28.3257H162.014V27.6973ZM166.035 29.1517H149.228V29.831L149.276 30.3637C149.533 33.3684 150.407 35.8403 151.891 37.7766C153.602 40.0391 155.878 41.1673 158.72 41.1673C160.56 41.1673 162.66 40.473 165.018 39.0844L165.212 39.5213C162.921 41.0057 160.354 41.7509 157.512 41.7509C153.862 41.7509 150.892 40.6286 148.6 38.3841C146.308 36.1396 145.16 33.1918 145.16 29.5407C145.16 26.8922 145.839 24.5819 147.194 22.6127C148.648 20.4819 150.616 19.1412 153.102 18.5905C154.266 18.3332 155.412 18.2015 156.543 18.2015C159.609 18.2015 161.984 19.204 163.662 21.2061C165.245 23.0795 166.035 25.5844 166.035 28.7178V29.1517Z" fill="black"/>
<path d="M182.18 20.5747C180.963 20.5747 179.784 21.0685 178.644 22.0531C177.507 23.0287 176.933 24.136 176.933 25.363V37.0554C176.933 39.3089 178.046 40.4401 180.275 40.4401V41.0686C179.856 41.0686 178.869 41.0357 177.319 40.9728H174.995C174.767 40.9728 173.783 40.9728 172.039 40.9728L169.762 41.0686V40.4401C171.991 40.4401 173.104 39.0844 173.104 36.3701V24.4532C173.104 22.514 172.562 21.5473 171.482 21.5473C171.007 21.5473 170.385 21.6431 169.619 21.8376L169.523 21.2092C172.218 20.2395 174.689 19.1592 176.933 17.9621V24.3575L177.75 22.5648C179.518 19.626 181.543 18.1566 183.82 18.1566C184.562 18.1566 185.25 18.2703 185.893 18.4948V23.0497C185.193 21.4007 183.948 20.5747 182.18 20.5747Z" fill="black"/>
<path d="M200.426 19.5093C198.101 19.5093 196.067 20.5119 194.323 22.523V39.7638C195.777 40.7005 197.359 41.1704 199.071 41.1704C201.975 41.1704 204.237 39.9912 205.852 37.624C207.306 35.5501 208.033 32.9973 208.033 29.9508C208.033 27.0988 207.486 24.7495 206.388 22.909C205.057 20.6406 203.073 19.5093 200.426 19.5093ZM199.842 41.5085C198.744 41.5085 197.581 41.3948 196.354 41.1704L190.592 40.102V8.98707C190.592 6.79942 189.979 5.70111 188.753 5.70111C188.462 5.70111 187.912 5.78191 187.107 5.94351L186.961 5.36293C189.512 4.49206 191.966 3.42368 194.323 2.16376V21.8855C195.744 20.6406 196.89 19.7847 197.763 19.3328C198.99 18.6774 200.363 18.3482 201.88 18.3482C204.979 18.3482 207.441 19.3178 209.266 21.2541C211.091 23.1933 212.003 25.7281 212.003 28.8615C212.003 32.6741 210.92 35.7327 208.757 38.043C206.591 40.3533 203.621 41.5085 199.842 41.5085Z" fill="black"/>
<path d="M80.0153 28.3766C78.9503 28.6339 77.8853 28.9751 76.8173 29.3941C74.5886 30.2979 73.1377 31.0101 72.4586 31.5249C71.0047 32.5903 70.2777 33.9968 70.2777 35.7415C70.2777 38.7791 71.618 40.2964 74.2984 40.2964C76.1053 40.2964 78.0109 39.2639 80.0153 37.196V28.3766ZM81.0803 41.9424C80.6615 41.3289 80.3204 40.455 80.0631 39.3268C79.9973 39.0694 79.9016 38.6175 79.773 37.9711C77.287 40.458 74.6873 41.703 71.974 41.703C69.3593 41.703 67.5973 40.5568 66.6939 38.2554C66.3708 37.4474 66.2092 36.6723 66.2092 35.9211C66.2092 34.338 67.1605 32.9643 69.0662 31.7942C70.0983 31.1807 71.8094 30.4864 74.1997 29.7113L80.0123 27.8618V24.0222C80.0123 22.5349 79.7042 21.3258 79.0909 20.3801C78.3819 19.2818 77.3139 18.7341 75.8929 18.7341C74.8608 18.7341 73.8916 19.0244 72.9881 19.614C71.956 20.2604 71.4385 21.0924 71.4385 22.1009C71.4385 22.7144 71.5851 23.4985 71.8752 24.4442L68.3871 25.5664C68.2914 25.3091 68.2106 24.9051 68.1448 24.3544C68.1448 22.5767 69.3713 21.0445 71.8244 19.7517C73.9544 18.6204 76.0395 18.0548 78.0738 18.0548C79.752 18.0548 81.1012 18.5546 82.1183 19.5571C83.1355 20.5597 83.644 21.9004 83.644 23.5793V36.2264C83.644 38.0339 84.3052 38.9407 85.6304 38.9407C86.0193 38.9407 86.5668 38.7791 87.2758 38.4559L87.4224 38.845L81.0803 41.9424Z" fill="black"/>
<path d="M180.316 52.6531H31.6836V53.7125H180.316V52.6531Z" fill="#75B051"/>
</g>
<defs>
<clipPath id="clip0">
<rect width="212" height="74" fill="white"/>
</clipPath>
</defs>
</svg>
